<?xml version="1.0" encoding="UTF-8"?>
<svg width="450px" height="189px" viewBox="0 0 450 189" version="1.1" xmlns="http://www.w3.org/2000/svg" xmlns:xlink="http://www.w3.org/1999/xlink">
    <title>Group 19</title>
    <defs>
        <polygon id="path-1" points="6.81628793e-05 0.0326120884 209.396191 0.0326120884 209.396191 75 6.81628793e-05 75"></polygon>
        <polygon id="path-3" points="0 188.209 449.211 188.209 449.211 0 0 0"></polygon>
    </defs>
    <g id="Page-1" stroke="none" stroke-width="1" fill="none" fill-rule="evenodd">
        <g id="linkedin_20_anios_v2-" transform="translate(-47.000000, -38.000000)">
            <g id="Group-19" transform="translate(47.000000, 38.000000)">
                <g id="Group-3" transform="translate(0.000000, 113.209000)">
                    <mask id="mask-2" fill="white">
                        <use xlink:href="#path-1"></use>
                    </mask>
                    <g id="Clip-2"></g>
                    <path d="M209.2957,69.3003 L200.1497,26.9343 C199.5397,23.8983 195.9697,21.2353 192.5127,21.2353 L171.8377,21.2353 L162.6317,21.2353 L28.5807,21.2353 C11.8917,20.1193 0.2597,0.1773 0.2597,0.1773 C-1.1043,-1.9127 3.2727,19.2083 4.8777,26.8123 C4.8857,26.8533 4.8867,26.8933 4.8957,26.9353 L14.0417,69.3003 C14.6507,72.3363 18.2217,75.0003 21.6787,75.0003 L168.1647,75.0003 L176.5767,75.0003 L203.9477,75.0003 C207.5277,75.0003 209.9257,72.4433 209.2957,69.3003" id="Fill-1" fill="#D02488" mask="url(#mask-2)"></path>
                </g>
                <path d="M425.9724,0.0005 L403.8424,0.0005 C388.5744,0.0005 373.9604,12.4235 371.2684,27.6915 L370.2874,33.7365 L367.9714,45.7605 L393.2434,35.4625 L394.7294,29.1105 C395.1184,26.8965 397.2384,25.0945 399.4524,25.0945 L421.5814,25.0945 C423.7954,25.0945 425.2784,26.8965 424.8884,29.1105 L419.2324,58.9595 C418.8554,61.0995 416.6474,62.9755 414.5094,62.9755 L395.8794,62.9755 L395.8634,63.0415 L378.2464,84.6375 C381.2174,85.9345 384.5844,86.6515 388.2444,86.6515 L410.3744,86.6515 C411.2514,86.6515 412.1264,86.6005 412.9964,86.5205 L412.9954,86.5185 C427.2664,85.1845 440.3734,73.3385 442.9094,58.9595 L448.7804,27.6915 C451.4724,12.4235 441.2414,0.0005 425.9724,0.0005" id="Fill-4" fill="#D02488"></path>
                <mask id="mask-4" fill="white">
                    <use xlink:href="#path-3"></use>
                </mask>
                <g id="Clip-7"></g>
                <polygon id="Fill-6" fill="#145986" mask="url(#mask-4)" points="66.728 126.282 90.358 126.282 90.358 33.302 66.728 33.302"></polygon>
                <path d="M170.2683,71.8882 L170.2683,126.3852 L193.8783,116.7522 L193.8783,71.8882 C193.8783,65.4632 192.8603,59.4282 190.8283,53.7862 C188.7933,48.1482 185.9103,43.1972 182.1703,38.9322 C178.4333,34.6712 173.9383,31.3252 168.6943,28.8982 C163.4463,26.4722 157.6073,25.2582 151.1823,25.2582 C145.6743,25.2582 140.6873,26.2112 136.2293,28.1102 C131.7673,30.0142 127.7693,32.4722 124.2273,35.4892 L124.2273,25.1202 L100.6173,25.1202 L100.6173,126.3892 L124.2273,126.3892 L124.2273,71.8882 C124.2273,65.4632 126.4563,60.0192 130.9173,55.5572 C135.3733,51.0992 140.8193,48.8682 147.2473,48.8682 C153.5423,48.8682 158.9203,51.0992 163.3813,55.5572 C167.9713,59.8862 170.2683,65.3302 170.2683,71.8882" id="Fill-8" fill="#145986" mask="url(#mask-4)"></path>
                <path d="M226.5037,77.9643 L275.6587,57.9653 C273.1757,54.8233 268.9737,52.1883 265.7197,50.8283 C258.5227,47.8273 251.2807,47.8263 243.9977,50.8223 C236.9547,53.7213 231.8137,58.8183 228.5687,66.1143 C227.2127,69.3713 226.4997,72.6463 226.4357,75.9353 L226.5037,77.9643 Z M236.9667,99.1603 C238.9747,100.7993 241.2467,102.1053 243.7807,103.0813 C247.3807,104.5813 251.0177,105.3203 254.6997,105.2953 C258.3797,105.2723 261.9807,104.5353 265.5027,103.0863 C270.4807,101.0383 274.4367,98.0643 277.3727,94.1563 L303.8817,93.8953 C301.6107,100.7913 297.9657,106.9433 292.9477,112.3423 C287.9287,117.7413 281.7777,121.9423 274.4947,124.9393 C267.8167,127.6873 261.0517,129.0133 254.2027,128.9243 C247.3527,128.8353 240.8407,127.5003 234.6717,124.9303 C228.5027,122.3583 222.9737,118.6713 218.0887,113.8663 C213.2007,109.0643 209.4097,103.3843 206.7117,96.8273 C203.9657,90.1533 202.6357,83.3873 202.7277,76.5343 C202.8167,69.6833 204.1497,63.1733 206.7227,57.0033 C209.2947,50.8363 212.9827,45.3083 217.7857,40.4203 C222.5887,35.5373 228.3277,31.7183 235.0067,28.9703 C241.6817,26.2243 248.4477,24.8973 255.2987,24.9853 C262.1497,25.0763 268.6597,26.4083 274.8287,28.9793 C280.9987,31.5513 286.5247,35.2393 291.4127,40.0423 C296.2977,44.8473 300.2637,50.3313 303.0097,57.0053 C304.6087,60.8933 306.0557,67.0613 306.6037,70.8083 C306.6037,70.8083 236.9547,99.1503 236.9667,99.1603 L236.9667,99.1603 Z" id="Fill-9" fill="#145986" mask="url(#mask-4)"></path>
                <path d="M363.6443,102.6528 L347.8903,102.6528 C345.5273,102.6528 343.4903,101.7998 341.7883,100.0928 C340.0793,98.3878 339.2263,96.2868 339.2263,93.7918 L339.2263,82.1248 L339.1823,82.1248 L339.1823,57.4148 L356.8193,50.2758 L352.9643,33.2748 L339.1823,33.2748 L339.1823,20.9418 L339.2263,20.9418 L339.2263,2.0268 L315.5963,7.9338 L315.5963,93.7918 C315.5963,98.2568 316.4483,102.4558 318.1573,106.3948 C319.8603,110.3328 322.1593,113.7788 325.0483,116.7328 C327.9353,119.6858 331.3503,122.0178 335.2883,123.7228 C339.2263,125.4298 343.4263,126.2828 347.8903,126.2828 L369.5523,126.2828 L363.6443,102.6528 Z" id="Fill-10" fill="#145986" mask="url(#mask-4)"></path>
                <path d="M73.4344,25.1411 L83.6514,25.1411 C87.3414,25.1411 90.3604,22.1221 90.3604,18.4331 L90.3604,8.7351 C90.3604,5.0451 87.3414,2.0271 83.6514,2.0271 L73.4344,2.0271 C69.7454,2.0271 66.7264,5.0451 66.7264,8.7351 L66.7264,18.4331 C66.7264,22.1221 69.7454,25.1411 73.4344,25.1411" id="Fill-11" fill="#145986" mask="url(#mask-4)"></path>
                <path d="M52.4422,102.7583 L36.6882,102.7583 C34.3262,102.7583 32.2892,101.9053 30.5862,100.1983 C28.8772,98.4933 28.0242,96.3933 28.0242,93.8973 L28.0242,82.2303 L27.9802,82.2303 L27.9802,57.5203 L45.6182,50.3823 L41.7622,33.3813 L27.9802,33.3813 L27.9802,21.0483 L28.0242,21.0483 L28.0242,2.1323 L4.3942,8.0403 L4.3942,93.8973 C4.3942,98.3623 5.2462,102.5623 6.9552,106.5013 C8.6592,110.4393 10.9572,113.8843 13.8462,116.8383 C16.7332,119.7923 20.1482,122.1243 24.0862,123.8293 C28.0242,125.5363 32.2242,126.3893 36.6882,126.3893 L58.3502,126.3893 L52.4422,102.7583 Z" id="Fill-12" fill="#145986" mask="url(#mask-4)"></path>
                <path d="M31.3035,171.9966 C31.7485,170.8746 32.3325,169.8366 33.0555,168.8836 C33.7785,167.9316 34.6695,167.0396 35.7305,166.2096 C36.7905,165.3796 38.0895,164.5796 39.6265,163.8106 C41.0405,163.0736 42.2935,162.4436 43.3855,161.9206 C44.4765,161.3976 45.3825,160.8986 46.1055,160.4226 C46.8275,159.9456 47.3735,159.4536 47.7425,158.9466 C48.1125,158.4386 48.2955,157.8326 48.2955,157.1256 C48.2955,156.3566 48.0195,155.7036 47.4655,155.1656 C46.9125,154.6276 46.0975,154.3576 45.0225,154.3576 C43.6685,154.3576 42.4315,154.7266 41.3105,155.4656 C40.1875,156.2026 39.1505,157.0176 38.1975,157.9086 L35.2455,153.3446 C35.7385,152.9136 36.3995,152.4446 37.2295,151.9366 C38.0595,151.4306 38.9965,150.9536 40.0415,150.5086 C41.0865,150.0626 42.2245,149.6936 43.4535,149.4006 C44.6835,149.1096 45.9595,148.9636 47.2825,148.9636 C49.9255,148.9636 51.9225,149.5556 53.2765,150.7386 C54.6285,151.9226 55.3055,153.4676 55.3055,155.3726 C55.3055,156.6336 55.0745,157.7476 54.6135,158.7166 C54.1525,159.6836 53.5525,160.5456 52.8155,161.2986 C52.0765,162.0526 51.2545,162.7126 50.3485,163.2806 C49.4415,163.8506 48.5565,164.3646 47.6975,164.8256 C47.1435,165.1016 46.5355,165.4256 45.8745,165.7946 C45.2135,166.1626 44.5615,166.5706 43.9155,167.0166 C43.2705,167.4626 42.6545,167.9546 42.0715,168.4916 C41.4865,169.0296 40.9945,169.5916 40.5955,170.1746 L52.7225,170.1746 L51.5245,175.7546 L30.1735,175.7546 C30.4815,174.3706 30.8585,173.1186 31.3035,171.9966" id="Fill-13" fill="#FEFEFE" mask="url(#mask-4)"></path>
                <path d="M68.3543,170.5434 C69.3073,170.5434 70.2143,170.2604 71.0753,169.6904 C71.9353,169.1224 72.7043,168.3384 73.3803,167.3394 C74.0563,166.3404 74.5943,165.1874 74.9953,163.8804 C75.3943,162.5734 75.5943,161.1834 75.5943,159.7074 C75.5943,157.9854 75.2713,156.5874 74.6253,155.5114 C73.9803,154.4354 73.0733,153.8974 71.9053,153.8974 C70.9203,153.8974 69.9833,154.1894 69.0923,154.7724 C68.2003,155.3574 67.4243,156.1494 66.7633,157.1474 C66.1023,158.1474 65.5723,159.3004 65.1723,160.6064 C64.7733,161.9134 64.5733,163.3044 64.5733,164.7794 C64.5733,166.5014 64.9033,167.8924 65.5653,168.9524 C66.2253,170.0134 67.1563,170.5434 68.3543,170.5434 M67.1563,176.2154 C65.8023,176.2154 64.5813,175.9454 63.4903,175.4084 C62.3983,174.8704 61.4763,174.1254 60.7233,173.1724 C59.9693,172.2194 59.3853,171.0814 58.9703,169.7604 C58.5553,168.4384 58.3483,166.9924 58.3483,165.4254 C58.3483,163.0584 58.7553,160.8294 59.5703,158.7384 C60.3843,156.6484 61.4763,154.8274 62.8443,153.2744 C64.2113,151.7224 65.7793,150.4924 67.5473,149.5854 C69.3153,148.6794 71.1673,148.2254 73.1043,148.2254 C74.4573,148.2254 75.6783,148.4944 76.7703,149.0324 C77.8613,149.5704 78.7833,150.3154 79.5373,151.2694 C80.2903,152.2224 80.8743,153.3664 81.2893,154.7044 C81.7043,156.0414 81.9123,157.4934 81.9123,159.0624 C81.9123,161.4594 81.5033,163.6954 80.6893,165.7714 C79.8753,167.8464 78.7833,169.6604 77.4163,171.2124 C76.0473,172.7654 74.4713,173.9864 72.6893,174.8784 C70.9063,175.7694 69.0613,176.2154 67.1563,176.2154" id="Fill-14" fill="#FEFEFE" mask="url(#mask-4)"></path>
                <path d="M101.7508,173.4487 C102.5198,173.4487 103.3498,173.2957 104.2408,172.9877 C105.1328,172.6807 105.9848,172.2577 106.8008,171.7197 C107.6138,171.1817 108.3528,170.5517 109.0138,169.8287 C109.6748,169.1067 110.1578,168.3307 110.4668,167.5007 L111.9878,160.0767 C111.8958,159.2467 111.6488,158.4697 111.2498,157.7477 C110.8508,157.0257 110.3578,156.3947 109.7738,155.8567 C109.1898,155.3197 108.5288,154.8877 107.7918,154.5657 C107.0538,154.2427 106.2848,154.0817 105.4858,154.0817 C104.1028,154.0817 102.7888,154.4277 101.5438,155.1187 C100.2988,155.8107 99.2068,156.7107 98.2698,157.8167 C97.3308,158.9237 96.5868,160.1687 96.0328,161.5527 C95.4798,162.9347 95.2028,164.3187 95.2028,165.7017 C95.2028,166.7787 95.3558,167.7847 95.6638,168.7217 C95.9718,169.6607 96.4168,170.4737 97.0018,171.1667 C97.5848,171.8577 98.2758,172.4117 99.0758,172.8267 C99.8758,173.2417 100.7668,173.4487 101.7508,173.4487 M100.4598,176.2157 C99.1058,176.2157 97.9078,175.9457 96.8628,175.4087 C95.8168,174.8707 94.9268,174.1397 94.1888,173.2187 C93.4508,172.2967 92.8898,171.2277 92.5058,170.0127 C92.1208,168.7997 91.9288,167.5157 91.9288,166.1627 C91.9288,164.2577 92.2978,162.4127 93.0358,160.6297 C93.7728,158.8467 94.7568,157.2627 95.9868,155.8807 C97.2158,154.4967 98.6308,153.3897 100.2298,152.5597 C101.8268,151.7297 103.5028,151.3147 105.2558,151.3147 C107.1918,151.3147 108.7898,151.8447 110.0518,152.9057 C111.3118,153.9667 112.2028,155.2507 112.7258,156.7567 L113.8328,151.7297 L116.9678,151.7297 L112.7258,171.6507 C112.6638,171.8967 112.6338,172.0957 112.6338,172.2497 C112.6338,172.7417 112.9258,172.9877 113.5098,172.9877 L112.9098,175.7547 C112.6638,175.7847 112.4338,175.8157 112.2188,175.8457 C112.0028,175.8767 111.8178,175.8927 111.6648,175.8927 C110.9578,175.8307 110.4278,175.6387 110.0738,175.3157 C109.7208,174.9937 109.5438,174.5717 109.5438,174.0487 C109.5438,173.8027 109.5818,173.4797 109.6588,173.0797 C109.7348,172.6807 109.8668,172.0187 110.0518,171.0967 C108.8208,172.6647 107.3378,173.9097 105.6018,174.8327 C103.8638,175.7547 102.1498,176.2157 100.4598,176.2157" id="Fill-15" fill="#FEFEFE" mask="url(#mask-4)"></path>
                <path d="M136.4734,146.3345 C135.8274,146.3345 135.2824,146.2425 134.8364,146.0585 C134.3904,145.8735 133.9834,145.6665 133.6154,145.4355 C133.2454,145.2045 132.8764,144.9905 132.5074,144.7895 C132.1384,144.5905 131.7244,144.4895 131.2624,144.4895 C130.8014,144.4895 130.4024,144.5985 130.0644,144.8135 C129.7254,145.0285 129.4564,145.2675 129.2564,145.5275 C129.0564,145.7895 128.9034,146.0345 128.7954,146.2655 C128.6874,146.4965 128.6344,146.6425 128.6344,146.7035 L126.6984,146.7035 C126.7284,146.5505 126.8514,146.2345 127.0664,145.7585 C127.2814,145.2815 127.5884,144.7985 127.9894,144.3065 C128.3884,143.8135 128.8954,143.3765 129.5104,142.9915 C130.1244,142.6075 130.8474,142.4155 131.6774,142.4155 C132.2924,142.4155 132.8074,142.5155 133.2224,142.7155 C133.6374,142.9155 134.0294,143.1385 134.3984,143.3835 C134.7674,143.6305 135.1364,143.8535 135.5044,144.0525 C135.8734,144.2525 136.3344,144.3525 136.8884,144.3525 C137.4424,144.3525 137.9104,144.2445 138.2944,144.0285 C138.6784,143.8135 138.9784,143.5675 139.1944,143.2915 C139.4094,143.0145 139.5704,142.7615 139.6784,142.5305 C139.7864,142.3005 139.8394,142.1545 139.8394,142.0925 L141.7764,142.0925 C141.7454,142.2465 141.6214,142.5535 141.4084,143.0145 C141.1924,143.4765 140.8694,143.9525 140.4394,144.4435 C140.0084,144.9365 139.4704,145.3745 138.8254,145.7585 C138.1794,146.1435 137.3954,146.3345 136.4734,146.3345 L136.4734,146.3345 Z M123.8384,151.7305 L126.7444,151.7305 L125.5444,157.1715 C126.1904,156.3115 126.9354,155.5195 127.7814,154.7965 C128.6264,154.0745 129.5174,153.4515 130.4554,152.9295 C131.3934,152.4065 132.3694,152.0065 133.3834,151.7305 C134.3984,151.4535 135.4124,151.3145 136.4274,151.3145 C138.3024,151.3145 139.6394,151.8215 140.4394,152.8365 C141.2384,153.8515 141.6384,155.2505 141.6384,157.0325 C141.6384,157.7405 141.5834,158.4705 141.4764,159.2235 C141.3694,159.9775 141.2234,160.7995 141.0384,161.6895 L138.0874,175.7545 L134.9524,175.7545 L137.8104,162.3355 C138.1184,160.8295 138.2724,159.5225 138.2724,158.4165 C138.2724,155.5885 137.0734,154.1735 134.6754,154.1735 C133.8144,154.1735 132.9144,154.3435 131.9774,154.6815 C131.0394,155.0205 130.1324,155.4955 129.2564,156.1105 C128.3804,156.7265 127.5744,157.4555 126.8354,158.3015 C126.0984,159.1475 125.4834,160.0615 124.9924,161.0445 L121.9024,175.7545 L118.7664,175.7545 L123.8384,151.7305 Z" id="Fill-16" fill="#FEFEFE" mask="url(#mask-4)"></path>
                <path d="M154.8719,173.4487 C156.1629,173.4487 157.4379,173.1347 158.6989,172.5037 C159.9599,171.8737 161.0809,171.0277 162.0649,169.9677 C163.0489,168.9067 163.8489,167.6777 164.4639,166.2777 C165.0779,164.8797 165.3859,163.3957 165.3859,161.8287 C165.3859,160.7527 165.2309,159.7377 164.9249,158.7847 C164.6169,157.8327 164.1789,157.0097 163.6099,156.3177 C163.0409,155.6267 162.3649,155.0807 161.5809,154.6807 C160.7979,154.2817 159.9289,154.0817 158.9759,154.0817 C157.6849,154.0817 156.4169,154.3967 155.1719,155.0267 C153.9269,155.6577 152.8049,156.5107 151.8059,157.5867 C150.8069,158.6627 149.9989,159.9077 149.3849,161.3207 C148.7689,162.7357 148.4629,164.2257 148.4629,165.7947 C148.4629,166.8707 148.6159,167.8777 148.9239,168.8147 C149.2299,169.7527 149.6689,170.5667 150.2379,171.2587 C150.8069,171.9497 151.4819,172.4887 152.2669,172.8727 C153.0509,173.2577 153.9189,173.4487 154.8719,173.4487 M154.2719,176.2157 C152.8579,176.2157 151.5899,175.9457 150.4689,175.4087 C149.3459,174.8707 148.3999,174.1477 147.6329,173.2417 C146.8629,172.3347 146.2719,171.2737 145.8569,170.0587 C145.4419,168.8447 145.2339,167.5467 145.2339,166.1627 C145.2339,164.2257 145.6269,162.3667 146.4099,160.5837 C147.1939,158.8017 148.2469,157.2247 149.5689,155.8567 C150.8909,154.4897 152.4119,153.3897 154.1349,152.5597 C155.8549,151.7297 157.6689,151.3147 159.5749,151.3147 C160.9889,151.3147 162.2499,151.5847 163.3559,152.1217 C164.4639,152.6597 165.4089,153.3827 166.1919,154.2897 C166.9759,155.1957 167.5759,156.2647 167.9909,157.4937 C168.4059,158.7237 168.6129,160.0297 168.6129,161.4137 C168.6129,163.3197 168.2219,165.1647 167.4369,166.9467 C166.6539,168.7297 165.6079,170.3057 164.3019,171.6737 C162.9949,173.0417 161.4739,174.1397 159.7369,174.9697 C157.9999,175.8007 156.1789,176.2157 154.2719,176.2157" id="Fill-17" fill="#FEFEFE" mask="url(#mask-4)"></path>
                <path d="M178.4812,176.2153 C176.6982,176.2153 175.0222,175.9073 173.4552,175.2933 C171.8862,174.6783 170.6112,173.7873 169.6272,172.6183 L171.4712,170.4973 C173.5312,172.7113 176.0212,173.8183 178.9422,173.8183 C180.9712,173.8183 182.6382,173.3493 183.9452,172.4113 C185.2522,171.4743 185.9052,170.2213 185.9052,168.6533 C185.9052,168.1003 185.7822,167.6383 185.5362,167.2703 C185.2902,166.9013 184.9202,166.5703 184.4292,166.2773 C183.9372,165.9863 183.3232,165.7173 182.5852,165.4713 C181.8472,165.2263 181.0012,164.9803 180.0482,164.7343 C178.9422,164.4263 177.9812,164.1263 177.1672,163.8343 C176.3512,163.5423 175.6752,163.2113 175.1372,162.8433 C174.5992,162.4743 174.1922,162.0353 173.9162,161.5283 C173.6392,161.0223 173.5012,160.4143 173.5012,159.7073 C173.5012,158.3863 173.7852,157.2013 174.3542,156.1563 C174.9222,155.1113 175.6752,154.2283 176.6132,153.5053 C177.5502,152.7833 178.6422,152.2363 179.8872,151.8683 C181.1322,151.4993 182.4302,151.3153 183.7842,151.3153 C185.5362,151.3153 187.0572,151.6143 188.3492,152.2143 C189.6402,152.8143 190.6382,153.6053 191.3462,154.5883 L189.4102,156.4333 C188.7642,155.5113 187.8792,154.8193 186.7572,154.3583 C185.6352,153.8973 184.4292,153.6663 183.1382,153.6663 C182.2772,153.6663 181.4472,153.7753 180.6482,153.9893 C179.8482,154.2043 179.1492,154.5283 178.5502,154.9573 C177.9512,155.3883 177.4732,155.9263 177.1212,156.5713 C176.7662,157.2173 176.5902,157.9863 176.5902,158.8773 C176.5902,159.8613 176.9822,160.5603 177.7662,160.9753 C178.5502,161.3903 179.7722,161.8133 181.4322,162.2433 C183.9222,162.8593 185.8202,163.5583 187.1272,164.3413 C188.4332,165.1253 189.0862,166.3173 189.0862,167.9153 C189.0862,169.1133 188.8252,170.2213 188.3022,171.2363 C187.7802,172.2493 187.0492,173.1263 186.1122,173.8633 C185.1742,174.6023 184.0522,175.1783 182.7462,175.5933 C181.4392,176.0083 180.0172,176.2153 178.4812,176.2153" id="Fill-18" fill="#FEFEFE" mask="url(#mask-4)"></path>
            </g>
        </g>
    </g>
</svg>